<svg width="429" height="429" viewBox="0 0 429 429" fill="none" xmlns="http://www.w3.org/2000/svg">
<g clip-path="url(#clip0_382_5)">
<path d="M160.875 53.625L128.164 89.375H71.5C51.8375 89.375 35.75 105.462 35.75 125.125V339.625C35.75 359.288 51.8375 375.375 71.5 375.375H357.5C377.163 375.375 393.25 359.288 393.25 339.625V125.125C393.25 105.462 377.163 89.375 357.5 89.375H300.836L268.125 53.625H160.875ZM214.5 321.75C165.165 321.75 125.125 281.71 125.125 232.375C125.125 183.04 165.165 143 214.5 143C263.835 143 303.875 183.04 303.875 232.375C303.875 281.71 263.835 321.75 214.5 321.75Z" fill="#E72C70"/>
</g>
<defs>
<clipPath id="clip0_382_5">
<rect width="429" height="429" fill="white"/>
</clipPath>
</defs>
</svg>
