<svg width="381" height="381" viewBox="0 0 381 381" fill="none" xmlns="http://www.w3.org/2000/svg">
<g clip-path="url(#clip0_382_2)">
<path d="M285.75 255.27C273.685 255.27 262.89 260.033 254.635 267.494L141.446 201.613C142.24 197.961 142.875 194.31 142.875 190.5C142.875 186.69 142.24 183.039 141.446 179.388L253.365 114.141C261.938 122.079 273.209 127 285.75 127C312.102 127 333.375 105.728 333.375 79.375C333.375 53.0225 312.102 31.75 285.75 31.75C259.398 31.75 238.125 53.0225 238.125 79.375C238.125 83.185 238.76 86.8363 239.554 90.4875L127.635 155.734C119.062 147.796 107.791 142.875 95.25 142.875C68.8975 142.875 47.625 164.148 47.625 190.5C47.625 216.853 68.8975 238.125 95.25 238.125C107.791 238.125 119.062 233.204 127.635 225.266L240.665 291.306C239.871 294.64 239.395 298.133 239.395 301.625C239.395 327.184 260.191 347.98 285.75 347.98C311.309 347.98 332.105 327.184 332.105 301.625C332.105 276.066 311.309 255.27 285.75 255.27Z" fill="#E72C70"/>
</g>
<defs>
<clipPath id="clip0_382_2">
<rect width="381" height="381" fill="white"/>
</clipPath>
</defs>
</svg>
